<?xml version="1.0" standalone="no"?>
<!DOCTYPE svg PUBLIC "-//W3C//DTD SVG 20010904//EN"
 "http://www.w3.org/TR/2001/REC-SVG-20010904/DTD/svg10.dtd">
<svg version="1.0" xmlns="http://www.w3.org/2000/svg"
 width="300.000000pt" height="300.000000pt" viewBox="0 0 300.000000 300.000000"
 preserveAspectRatio="xMidYMid meet">
<metadata>
Created by potrace 1.14, written by Peter Selinger 2001-2017
</metadata>
<g transform="translate(0.000000,300.000000) scale(0.100000,-0.100000)"
fill="#000000" stroke="none">
<path d="M0 1500 l0 -1500 1500 0 1500 0 0 1500 0 1500 -1500 0 -1500 0 0
-1500z m1188 800 c236 -91 365 -344 349 -685 -15 -304 -146 -508 -376 -587
-54 -19 -86 -23 -176 -22 -162 1 -259 39 -364 143 -75 75 -126 169 -157 291
-27 108 -25 363 4 472 62 231 214 383 415 417 96 16 219 4 305 -29z m1124
-348 c60 -27 103 -74 130 -140 21 -55 22 -68 22 -422 l1 -365 -105 0 -105 0
-2 140 c-2 77 -4 228 -5 335 -3 164 -6 200 -21 227 -42 78 -167 84 -234 12
-50 -54 -55 -93 -61 -417 l-4 -303 -102 3 -101 3 -3 468 -2 467 100 0 100 0 0
-67 0 -67 53 51 c28 27 66 58 82 67 72 39 180 43 257 8z"/>
<path d="M865 2086 c-64 -29 -128 -101 -155 -174 -62 -165 -45 -431 35 -554
79 -120 207 -166 344 -121 95 30 169 127 202 263 29 124 10 362 -38 453 -25
50 -94 116 -141 137 -65 29 -180 27 -247 -4z"/>
</g>
</svg>
